<mxfile host="app.diagrams.net" agent="Mozilla/5.0 (Windows NT 10.0; Win64; x64) AppleWebKit/537.36 (KHTML, like Gecko) Chrome/132.0.0.0 Safari/537.36 OPR/117.0.0.0" version="26.2.8">
  <diagram name="Página-1" id="i1-9zbI-izNcQKmLYDi3">
    <mxGraphModel dx="833" dy="1622" grid="1" gridSize="10" guides="1" tooltips="1" connect="1" arrows="1" fold="1" page="1" pageScale="1" pageWidth="827" pageHeight="1169" math="0" shadow="0">
      <root>
        <mxCell id="0" />
        <mxCell id="1" parent="0" />
        <mxCell id="urVCAz3w2QCLQrZMvMyL-1" value="" style="edgeStyle=orthogonalEdgeStyle;rounded=0;orthogonalLoop=1;jettySize=auto;html=1;" edge="1" parent="1" source="urVCAz3w2QCLQrZMvMyL-2" target="urVCAz3w2QCLQrZMvMyL-4">
          <mxGeometry relative="1" as="geometry" />
        </mxCell>
        <mxCell id="urVCAz3w2QCLQrZMvMyL-2" value="Início" style="rounded=1;whiteSpace=wrap;html=1;fontSize=12;glass=0;strokeWidth=1;shadow=0;" vertex="1" parent="1">
          <mxGeometry x="92.5" y="-1140" width="60" height="40" as="geometry" />
        </mxCell>
        <mxCell id="urVCAz3w2QCLQrZMvMyL-3" value="" style="edgeStyle=orthogonalEdgeStyle;rounded=0;orthogonalLoop=1;jettySize=auto;html=1;" edge="1" parent="1" source="urVCAz3w2QCLQrZMvMyL-4" target="urVCAz3w2QCLQrZMvMyL-5">
          <mxGeometry relative="1" as="geometry" />
        </mxCell>
        <mxCell id="urVCAz3w2QCLQrZMvMyL-4" value="&lt;div&gt;&lt;br&gt;&lt;/div&gt;&lt;div&gt;&lt;br&gt;&lt;/div&gt;Ler h" style="shape=manualInput;whiteSpace=wrap;html=1;" vertex="1" parent="1">
          <mxGeometry x="77.5" y="-1010" width="90" height="60" as="geometry" />
        </mxCell>
        <mxCell id="urVCAz3w2QCLQrZMvMyL-7" value="" style="edgeStyle=orthogonalEdgeStyle;rounded=0;orthogonalLoop=1;jettySize=auto;html=1;" edge="1" parent="1" source="urVCAz3w2QCLQrZMvMyL-5" target="urVCAz3w2QCLQrZMvMyL-6">
          <mxGeometry relative="1" as="geometry" />
        </mxCell>
        <mxCell id="urVCAz3w2QCLQrZMvMyL-5" value="&lt;div&gt;&lt;br&gt;&lt;/div&gt;&lt;div&gt;&lt;br&gt;&lt;/div&gt;Ler sexo" style="shape=manualInput;whiteSpace=wrap;html=1;" vertex="1" parent="1">
          <mxGeometry x="77.5" y="-870" width="90" height="60" as="geometry" />
        </mxCell>
        <mxCell id="urVCAz3w2QCLQrZMvMyL-9" value="" style="edgeStyle=orthogonalEdgeStyle;rounded=0;orthogonalLoop=1;jettySize=auto;html=1;" edge="1" parent="1" source="urVCAz3w2QCLQrZMvMyL-6" target="urVCAz3w2QCLQrZMvMyL-8">
          <mxGeometry relative="1" as="geometry" />
        </mxCell>
        <mxCell id="urVCAz3w2QCLQrZMvMyL-10" value="verdadeiro" style="edgeLabel;html=1;align=center;verticalAlign=middle;resizable=0;points=[];" vertex="1" connectable="0" parent="urVCAz3w2QCLQrZMvMyL-9">
          <mxGeometry x="-0.4483" y="1" relative="1" as="geometry">
            <mxPoint x="5" y="1" as="offset" />
          </mxGeometry>
        </mxCell>
        <mxCell id="urVCAz3w2QCLQrZMvMyL-12" value="" style="edgeStyle=orthogonalEdgeStyle;rounded=0;orthogonalLoop=1;jettySize=auto;html=1;" edge="1" parent="1" source="urVCAz3w2QCLQrZMvMyL-6" target="urVCAz3w2QCLQrZMvMyL-11">
          <mxGeometry relative="1" as="geometry" />
        </mxCell>
        <mxCell id="urVCAz3w2QCLQrZMvMyL-13" value="falso" style="edgeLabel;html=1;align=center;verticalAlign=middle;resizable=0;points=[];" vertex="1" connectable="0" parent="urVCAz3w2QCLQrZMvMyL-12">
          <mxGeometry x="0.075" y="-1" relative="1" as="geometry">
            <mxPoint as="offset" />
          </mxGeometry>
        </mxCell>
        <mxCell id="urVCAz3w2QCLQrZMvMyL-6" value="sexo = masculino" style="rhombus;whiteSpace=wrap;html=1;" vertex="1" parent="1">
          <mxGeometry x="70" y="-750" width="105" height="100" as="geometry" />
        </mxCell>
        <mxCell id="urVCAz3w2QCLQrZMvMyL-19" style="edgeStyle=orthogonalEdgeStyle;rounded=0;orthogonalLoop=1;jettySize=auto;html=1;" edge="1" parent="1" source="urVCAz3w2QCLQrZMvMyL-8" target="urVCAz3w2QCLQrZMvMyL-17">
          <mxGeometry relative="1" as="geometry" />
        </mxCell>
        <mxCell id="urVCAz3w2QCLQrZMvMyL-8" value="peso_i = (72,7*h)-58" style="whiteSpace=wrap;html=1;" vertex="1" parent="1">
          <mxGeometry x="290" y="-730" width="120" height="60" as="geometry" />
        </mxCell>
        <mxCell id="urVCAz3w2QCLQrZMvMyL-15" value="" style="edgeStyle=orthogonalEdgeStyle;rounded=0;orthogonalLoop=1;jettySize=auto;html=1;" edge="1" parent="1" source="urVCAz3w2QCLQrZMvMyL-11" target="urVCAz3w2QCLQrZMvMyL-14">
          <mxGeometry relative="1" as="geometry" />
        </mxCell>
        <mxCell id="urVCAz3w2QCLQrZMvMyL-16" value="verdadeiro" style="edgeLabel;html=1;align=center;verticalAlign=middle;resizable=0;points=[];" vertex="1" connectable="0" parent="urVCAz3w2QCLQrZMvMyL-15">
          <mxGeometry x="-0.4667" y="-1" relative="1" as="geometry">
            <mxPoint x="5" y="-1" as="offset" />
          </mxGeometry>
        </mxCell>
        <mxCell id="urVCAz3w2QCLQrZMvMyL-11" value="sexo = feminino" style="rhombus;whiteSpace=wrap;html=1;" vertex="1" parent="1">
          <mxGeometry x="70" y="-570" width="105" height="100" as="geometry" />
        </mxCell>
        <mxCell id="urVCAz3w2QCLQrZMvMyL-18" value="" style="edgeStyle=orthogonalEdgeStyle;rounded=0;orthogonalLoop=1;jettySize=auto;html=1;" edge="1" parent="1" source="urVCAz3w2QCLQrZMvMyL-14" target="urVCAz3w2QCLQrZMvMyL-17">
          <mxGeometry relative="1" as="geometry" />
        </mxCell>
        <mxCell id="urVCAz3w2QCLQrZMvMyL-14" value="peso_i = (62,1*h)-44,7" style="whiteSpace=wrap;html=1;" vertex="1" parent="1">
          <mxGeometry x="260" y="-550" width="150" height="60" as="geometry" />
        </mxCell>
        <mxCell id="urVCAz3w2QCLQrZMvMyL-21" value="" style="edgeStyle=orthogonalEdgeStyle;rounded=0;orthogonalLoop=1;jettySize=auto;html=1;" edge="1" parent="1" source="urVCAz3w2QCLQrZMvMyL-17" target="urVCAz3w2QCLQrZMvMyL-20">
          <mxGeometry relative="1" as="geometry" />
        </mxCell>
        <mxCell id="urVCAz3w2QCLQrZMvMyL-17" value="" style="ellipse;whiteSpace=wrap;html=1;" vertex="1" parent="1">
          <mxGeometry x="560" y="-630" width="40" height="40" as="geometry" />
        </mxCell>
        <mxCell id="urVCAz3w2QCLQrZMvMyL-23" value="" style="edgeStyle=orthogonalEdgeStyle;rounded=0;orthogonalLoop=1;jettySize=auto;html=1;" edge="1" parent="1" source="urVCAz3w2QCLQrZMvMyL-20" target="urVCAz3w2QCLQrZMvMyL-22">
          <mxGeometry relative="1" as="geometry" />
        </mxCell>
        <mxCell id="urVCAz3w2QCLQrZMvMyL-20" value="peso_i" style="shape=display;whiteSpace=wrap;html=1;" vertex="1" parent="1">
          <mxGeometry x="670" y="-630" width="80" height="40" as="geometry" />
        </mxCell>
        <mxCell id="urVCAz3w2QCLQrZMvMyL-22" value="Fim" style="rounded=1;whiteSpace=wrap;html=1;fontSize=12;glass=0;strokeWidth=1;shadow=0;" vertex="1" parent="1">
          <mxGeometry x="860" y="-630" width="60" height="40" as="geometry" />
        </mxCell>
      </root>
    </mxGraphModel>
  </diagram>
</mxfile>
